<svg xmlns="http://www.w3.org/2000/svg" viewBox="0 0 512 512" fill="currentColor">
  <path d="M256 416c-35.3 0-64-28.7-64-64V160c0-35.3 28.7-64 64-64s64 28.7 64 64v192c0 35.3-28.7 64-64 64zm0-288c-17.7 0-32 14.3-32 32v192c0 17.7 14.3 32 32 32s32-14.3 32-32V160c0-17.7-14.3-32-32-32z"/>
  <path d="M160 480c-35.3 0-64-28.7-64-64V96c0-35.3 28.7-64 64-64s64 28.7 64 64v320c0 35.3-28.7 64-64 64zm0-416c-17.7 0-32 14.3-32 32v320c0 17.7 14.3 32 32 32s32-14.3 32-32V96c0-17.7-14.3-32-32-32z"/>
  <path d="M352 480c-35.3 0-64-28.7-64-64V96c0-35.3 28.7-64 64-64s64 28.7 64 64v320c0 35.3-28.7 64-64 64zm0-416c-17.7 0-32 14.3-32 32v320c0 17.7 14.3 32 32 32s32-14.3 32-32V96c0-17.7-14.3-32-32-32z"/>
  <path d="M64 352c-35.3 0-64-28.7-64-64v-64c0-35.3 28.7-64 64-64s64 28.7 64 64v64c0 35.3-28.7 64-64 64zm0-160c-17.7 0-32 14.3-32 32v64c0 17.7 14.3 32 32 32s32-14.3 32-32v-64c0-17.7-14.3-32-32-32z"/>
  <path d="M448 352c-35.3 0-64-28.7-64-64v-64c0-35.3 28.7-64 64-64s64 28.7 64 64v64c0 35.3-28.7 64-64 64zm0-160c-17.7 0-32 14.3-32 32v64c0 17.7 14.3 32 32 32s32-14.3 32-32v-64c0-17.7-14.3-32-32-32z"/>
</svg>